<?xml version="1.0" encoding="UTF-8" standalone="no"?>
<!-- Created with Inkscape (http://www.inkscape.org/) -->

<svg
   width="210mm"
   height="297mm"
   viewBox="0 0 210 297"
   version="1.1"
   id="svg5"
   inkscape:version="1.1.1 (3bf5ae0d25, 2021-09-20)"
   sodipodi:docname="golf.svg"
   xmlns:inkscape="http://www.inkscape.org/namespaces/inkscape"
   xmlns:sodipodi="http://sodipodi.sourceforge.net/DTD/sodipodi-0.dtd"
   xmlns="http://www.w3.org/2000/svg"
   xmlns:svg="http://www.w3.org/2000/svg">
  <sodipodi:namedview
     id="namedview7"
     pagecolor="#ffffff"
     bordercolor="#666666"
     borderopacity="1.0"
     inkscape:pageshadow="2"
     inkscape:pageopacity="0.0"
     inkscape:pagecheckerboard="0"
     inkscape:document-units="mm"
     showgrid="false"
     inkscape:zoom="0.54785926"
     inkscape:cx="200.78149"
     inkscape:cy="618.77205"
     inkscape:window-width="1500"
     inkscape:window-height="938"
     inkscape:window-x="-6"
     inkscape:window-y="-6"
     inkscape:window-maximized="1"
     inkscape:current-layer="layer1" />
  <defs
     id="defs2">
    <inkscape:path-effect
       effect="bspline"
       id="path-effect1630"
       is_visible="true"
       lpeversion="1"
       weight="33.333333"
       steps="2"
       helper_size="0"
       apply_no_weight="true"
       apply_with_weight="true"
       only_selected="false" />
    <inkscape:path-effect
       effect="bspline"
       id="path-effect859"
       is_visible="true"
       lpeversion="1"
       weight="33.333333"
       steps="2"
       helper_size="0"
       apply_no_weight="true"
       apply_with_weight="true"
       only_selected="false" />
  </defs>
  <g
     inkscape:label="Layer 1"
     inkscape:groupmode="layer"
     id="layer1">
    <path
       style="fill:#000000;fill-opacity:1;stroke:#ffffff;stroke-width:2.07982;stroke-linecap:butt;stroke-linejoin:miter;stroke-miterlimit:4;stroke-dasharray:none;stroke-opacity:1"
       d="m 186.07134,28.476694 c -5.31884,9.48535 -15.95628,28.455583 -21.1187,38.477932 -5.16242,10.022349 -4.84946,11.095682 -3.81532,12.197697 1.03413,1.102016 2.78915,2.232718 4.11866,3.065092 1.32951,0.832375 2.25633,1.379916 3.1309,1.581166 0.87457,0.20125 1.64888,0.05287 7.72852,-9.519113 6.07964,-9.57198 17.44701,-28.561348 23.66682,-38.496619 6.2198,-9.935271 7.29058,-10.814122 7.608,-11.733999 0.31742,-0.919877 -0.11075,-1.863928 -2.14723,-3.277233 -2.03649,-1.413305 -5.68458,-3.290741 -8.15127,-4.086487 -2.46669,-0.795745 -3.75534,-0.511369 -4.50938,0.0531 -0.75403,0.56447 -0.97311,1.408832 -1.08265,1.830976 -0.10953,0.422144 -0.1095,0.422136 -5.42835,9.907487 z"
       id="path857"
       inkscape:path-effect="#path-effect859"
       inkscape:original-d="m 191.39019,18.991343 c -10.63736,18.970889 -21.27479,37.941122 -31.91302,56.911991 0.31334,1.073557 0.6263,2.146889 0.9389,3.220065 1.75539,1.130929 3.51041,2.261621 5.26511,3.39215 0.90431,0.534237 1.83113,1.08178 2.77398,1.638794 0.80634,-0.154272 1.58065,-0.302654 2.37059,-0.454283 11.36961,-18.99238 22.73698,-37.981749 34.10535,-56.973507 1.07115,-0.878698 2.14192,-1.757552 3.21238,-2.636605 -0.48713,-0.937713 -0.8638,-1.905119 -1.2962,-2.857961 -3.60374,-1.945652 -7.28888,-3.751097 -10.93382,-5.62693 -1.28838,0.284577 -2.57703,0.568952 -3.86603,0.853145 -0.21877,0.84459 -0.43785,1.688953 -0.65727,2.533149 z"
       sodipodi:nodetypes="cccccccccccc" />
    <path
       style="fill:none;stroke:#ffffff;stroke-width:2.07982;stroke-linecap:butt;stroke-linejoin:miter;stroke-miterlimit:4;stroke-dasharray:none;stroke-opacity:1"
       d="M 166.54842,82.844062 C 131.92502,144.18022 97.301666,205.5163 78.865673,236.40916 60.42968,267.30203 58.092694,267.76942 49.608707,268.11338 41.12472,268.45734 26.450215,268.68663 18.195548,266.27916 9.9408809,263.87168 8.1065705,258.82733 6.9600491,253.32421 5.8135277,247.82108 5.3549492,241.85956 9.7117478,238.99325 c 4.3567982,-2.86631 13.5283642,-2.63702 22.7884822,-1.38228 9.260118,1.25473 18.713758,3.56049 25.133908,3.7897 6.420151,0.22922 9.859489,-1.60509 26.671807,-28.93718 16.812315,-27.33208 47.295775,-80.68374 77.630235,-133.774632"
       id="path1628"
       inkscape:path-effect="#path-effect1630"
       inkscape:original-d="M 166.54842,82.844062 C 131.92533,144.1804 97.301984,205.51648 62.678362,266.85229 c -2.292715,0.22957 -4.585606,0.91744 -6.87881,1.37576 -14.674828,0.22957 -29.349333,0.45886 -44.024399,0.68788 -1.8341213,-5.0443 -3.6684336,-10.08865 -5.5030506,-15.13338 -0.4583299,-5.96149 -0.9169082,-11.92301 -1.3757623,-17.88491 9.1721999,0.22956 18.3437659,0.45885 27.5152499,0.68788 9.401497,2.06395 18.802352,4.58613 28.20313,6.8788 3.439741,-1.83411 6.87908,-3.66842 10.318218,-5.50304 C 100.94395,185.03181 131.60203,131.77993 161.93618,78.688858" />
    <ellipse
       style="fill:#000000;fill-opacity:1;stroke:#000000;stroke-width:1.84496;stroke-opacity:1"
       id="path1788"
       cx="56.508125"
       cy="242.11943"
       rx="20.546459"
       ry="1.5766433"
       transform="rotate(4.8216029)" />
    <ellipse
       style="fill:#000000;fill-opacity:1;stroke:#000000;stroke-width:1.84496;stroke-opacity:1"
       id="path1788-8"
       cx="56.11113"
       cy="248.98679"
       rx="20.546459"
       ry="1.5766433"
       transform="rotate(4.8216029)" />
    <ellipse
       style="fill:#000000;fill-opacity:1;stroke:#000000;stroke-width:1.84496;stroke-opacity:1"
       id="path1788-3"
       cx="56.198826"
       cy="255.81326"
       rx="20.546459"
       ry="1.5766433"
       transform="rotate(4.8216029)" />
    <path
       style="fill:#ffffff;fill-opacity:1;stroke:#ffffff;stroke-width:2.58744;stroke-miterlimit:4;stroke-dasharray:none;stroke-opacity:1"
       d="M 29.147478,266.70186 C 15.723254,265.46371 11.206462,262.94389 8.8832948,255.39688 7.3807393,250.5157 7.3127942,244.01252 8.7437282,242.03867 c 1.7050508,-2.35198 4.9239058,-3.60513 10.0449438,-3.91065 5.372336,-0.32052 11.2065,0.29615 24.707769,2.61164 12.175308,2.08807 17.374261,2.28878 20.23846,0.78133 7.928834,-4.17304 21.427787,-25.88868 82.020399,-131.94539 9.09409,-15.917615 16.70734,-29.127694 16.91832,-29.355725 0.21098,-0.228031 1.22187,0.155013 2.24642,0.85121 1.02454,0.696197 1.53412,1.265815 1.13238,1.265815 -0.459,0 -7.49873,11.974645 -18.94425,32.22436 -62.791751,111.09279 -79.387448,139.23125 -86.80138,147.17415 -4.37092,4.68277 -5.089768,4.90246 -16.873411,5.15656 -5.449539,0.11751 -11.878192,0.032 -14.285901,-0.19011 z m 24.224235,-3.72758 c 2.225294,-0.30501 2.979237,-1.01865 2.472173,-2.34002 -0.566404,-1.47604 -12.56969,-3.22472 -28.642028,-4.17269 -11.981912,-0.7067 -14.9756,-0.24484 -14.04987,2.16757 0.533185,1.38945 12.805346,3.26314 26.939613,4.11307 9.180686,0.55205 10.745985,0.57941 13.280112,0.23207 z m 0.486407,-6.80968 c 2.225294,-0.305 2.979237,-1.01865 2.472172,-2.34002 -0.566403,-1.47604 -12.569693,-3.22472 -28.64203,-4.17268 -11.981911,-0.7067 -14.975598,-0.24485 -14.049868,2.16756 0.533184,1.38946 12.805347,3.26314 26.939614,4.11307 9.180685,0.55206 10.745985,0.57941 13.280112,0.23207 z m 0.972811,-6.80968 c 2.225293,-0.305 2.979236,-1.01864 2.472172,-2.34002 -0.566404,-1.47603 -12.569691,-3.22472 -28.642029,-4.17268 -11.981912,-0.7067 -14.975599,-0.24485 -14.049869,2.16757 0.533184,1.38945 12.805347,3.26313 26.939613,4.11306 9.180685,0.55207 10.745986,0.57941 13.280113,0.23207 z"
       id="path2815" />
  </g>
</svg>
