<?xml version="1.0" encoding="UTF-8" standalone="no"?>
<!-- Created with Inkscape (http://www.inkscape.org/) -->

<svg
   version="1.1"
   id="svg9"
   width="225"
   height="225"
   viewBox="0 0 225 225"
   sodipodi:docname="logo.svg"
   inkscape:version="1.1.1 (3bf5ae0d25, 2021-09-20)"
   xmlns:inkscape="http://www.inkscape.org/namespaces/inkscape"
   xmlns:sodipodi="http://sodipodi.sourceforge.net/DTD/sodipodi-0.dtd"
   xmlns="http://www.w3.org/2000/svg"
   xmlns:svg="http://www.w3.org/2000/svg">
  <defs
     id="defs13" />
  <sodipodi:namedview
     id="namedview11"
     pagecolor="#ffffff"
     bordercolor="#666666"
     borderopacity="1.0"
     inkscape:pageshadow="2"
     inkscape:pageopacity="0.0"
     inkscape:pagecheckerboard="0"
     showgrid="false"
     inkscape:zoom="3.0577778"
     inkscape:cx="112.5"
     inkscape:cy="112.5"
     inkscape:window-width="1500"
     inkscape:window-height="938"
     inkscape:window-x="-6"
     inkscape:window-y="-6"
     inkscape:window-maximized="1"
     inkscape:current-layer="g15" />
  <g
     inkscape:groupmode="layer"
     inkscape:label="Image"
     id="g15">
    <path
       style="fill:#ffffff"
       d="M 92.201775,223.11323 C 69.634282,219.02826 45.011952,205.35057 29.830912,188.46625 9.1748571,165.49264 -0.84094705,137.43675 0.65308671,106.73444 2.3722509,71.405704 19.468265,40.466839 48.942412,19.344645 56.888418,13.650262 74.146145,5.8606602 84.989825,3.0739642 c 13.650586,-3.50803901 32.248785,-4.305385 46.161345,-1.979039 34.90528,5.836579 65.57816,27.9891448 81.93121,59.1723488 4.50343,8.58748 9.89361,25.4045 11.31175,35.29196 1.63056,11.368466 0.66284,33.233376 -1.93031,43.613726 -8.01159,32.07033 -31.99274,61.43204 -61.13679,74.85384 -16.65861,7.67185 -30.79588,10.69404 -49.38099,10.55642 -6.66546,-0.0494 -15.550372,-0.71085 -19.744265,-1.46999 z m 39.100375,-2.93449 c 52.94139,-9.31681 91.01629,-54.55372 91.02351,-108.14531 C 222.33166,66.743704 194.30322,26.20418 151.74944,9.9544292 137.66041,4.5743372 129.48869,3.1692642 112.82703,3.2619752 92.163603,3.3769542 78.093797,6.7921102 61.440422,15.73502 32.309995,31.378141 12.329365,58.510629 5.150768,92.172964 3.1938773,101.34934 3.5094422,125.51733 5.7109455,135.07497 14.4475,173.00394 40.79774,202.72194 77.327035,215.84411 c 15.235244,5.47286 37.394995,7.25246 53.975115,4.33463 z M 92.952502,217.11908 C 78.319093,214.21148 62.495087,207.44744 50.762712,199.0849 43.287792,193.75696 29.049594,179.06691 24.193939,171.67296 -4.633123,127.77655 2.0314894,70.254194 40.085749,34.510538 63.560856,12.460808 95.502675,2.2826242 127.5416,6.6429412 c 34.39221,4.6805858 65.03035,26.6845168 80.80064,58.0300228 15.20237,30.2167 14.68028,68.155676 -1.34863,97.999996 -7.29024,13.57375 -19.50135,27.52947 -31.66658,36.19078 -12.52756,8.91928 -30.51734,16.38908 -45.21429,18.77408 -8.6829,1.40904 -28.87682,1.12715 -37.160238,-0.51874 z m 37.810288,-2.96288 c 42.64415,-7.43652 76.61413,-41.4215 84.05532,-84.09244 C 224.07185,76.998894 190.64447,25.30787 138.51046,12.064072 120.3864,7.4599502 98.273636,8.0764292 81.160884,13.662913 70.504062,17.141848 56.5668,24.815167 47.540561,32.172965 21.994931,52.996654 7.9247216,84.782584 9.6935421,117.67296 13.018606,179.50094 69.836762,224.78081 130.76279,214.1562 Z M 99.827035,197.47801 c -2.785552,-1.57958 -3.46703,-2.8312 -3.484687,-6.40006 -0.0091,-1.84823 0.79661,-3.82979 2.000205,-4.91903 l 2.015517,-1.82402 -2.015517,-2.14542 c -4.184433,-4.45413 -1.127748,-11.51652 4.984477,-11.51652 5.94456,0 9.16117,6.73419 5.01073,10.49029 -1.97874,1.79074 -1.9761,1.81246 0.5,4.10724 6.57426,6.09282 -1.20599,16.63331 -9.010725,12.20752 z m 6.565735,-0.84023 c 2.97224,-1.5907 2.60745,-7.29013 -0.62956,-9.83636 -2.80089,-2.20318 -4.95537,-1.89539 -6.463955,0.92345 -1.525883,2.85114 -1.148163,5.77215 1.027775,7.94809 2.26853,2.26853 3.31787,2.43543 6.06574,0.96482 z m -0.0393,-16.01427 c 1.49481,-2.79309 0.8492,-7.0136 -1.27647,-8.34457 -4.52481,-2.83317 -8.001971,5.70327 -3.58369,8.79796 2.9539,2.06899 3.53945,2.01437 4.86016,-0.45339 z m 6.97356,17.29356 c 0,-0.41574 1.32215,-1.34113 2.93811,-2.05642 3.98492,-1.7639 7.06189,-8.32974 7.06189,-15.06916 0,-6.41899 -1.31368,-9.11853 -4.43736,-9.11853 -5.07765,0 -5.85363,12.38689 -0.85458,13.64158 1.6268,0.4083 2.06655,0.87969 1.27626,1.36811 -3.27516,2.02416 -7.98432,-2.88603 -7.98432,-8.32517 0,-3.96669 3.62856,-7.68452 7.5,-7.68452 4.98519,0 7.5,3.68402 7.5,10.98698 0,4.2908 -0.56731,6.55909 -2.2738,9.09134 -3.10523,4.60785 -10.7262,9.69915 -10.7262,7.16579 z m 17.18856,-1.28307 c -3.01513,-2.80902 -2.96746,-8.28014 0.0923,-10.58809 l 2.28081,-1.72042 -2.28081,-2.28081 c -2.91834,-2.91834 -2.90547,-6.43625 0.0336,-9.19741 2.72151,-2.55672 6.35592,-2.79392 9.46304,-0.61761 2.81049,1.96854 2.92865,6.49428 0.23324,8.93359 -1.97874,1.79074 -1.9761,1.81246 0.5,4.10724 3.29639,3.05498 3.31103,7.67162 0.0347,10.94792 -3.01828,3.01828 -7.37556,3.19313 -10.35689,0.41559 z m 8.24531,-0.28903 c 2.71973,-1.98871 2.31024,-6.6352 -0.8222,-9.32961 -3.04373,-2.61811 -4.87136,-2.26262 -6.47622,1.25966 -1.60701,3.52702 -1.42184,5.11155 0.86455,7.39794 2.33816,2.33816 3.92816,2.50423 6.43387,0.67201 z m 0.60306,-17.26915 c 1.3315,-3.50211 -0.41377,-7.40286 -3.31218,-7.40286 -5.28473,0 -6.73714,6.88173 -1.97862,9.37497 3.17275,1.66237 4.03054,1.34264 5.2908,-1.97211 z m -54.786925,17.51704 c 1.490003,-0.86785 1.75,-2.57188 1.75,-11.46959 0,-9.4879 -0.742382,-12.2942 -2.5,-9.45031 -0.339919,0.55 -1.141764,1 -1.781878,1 -0.640115,0 0.314216,-1.35 2.120735,-3 1.806519,-1.65 3.732525,-3 4.280014,-3 0.623757,0 0.880749,4.6527 0.688282,12.46093 -0.286733,11.6325 -0.174188,12.52551 1.692847,13.43232 1.582838,0.76878 0.957095,0.97916 -3,1.00866 -3.862813,0.0288 -4.601984,-0.19455 -3.25,-0.98201 z m -38.592109,-8.74543 c -0.937328,-1.03574 -1.925847,-4.44476 -2.284859,-7.87959 l -0.632773,-6.05405 3.633333,-1.19911 c 3.770436,-1.24436 6.997018,-0.88944 14.567102,1.60233 4.100549,1.34974 4.63673,1.31839 7,-0.40936 1.407618,-1.02909 8.086639,-9.20094 14.842269,-18.15966 l 12.282964,-16.28859 -3.57662,-4.36479 c -8.865085,-10.81867 -11.689201,-28.10073 -6.838631,-41.848706 1.356636,-3.84512 1.305119,-4.1066 -1.608411,-8.16362 -2.585888,-3.60078 -2.804081,-4.36211 -1.548753,-5.40393 1.193562,-0.99057 1.933329,-0.65157 4.039033,1.85092 l 2.577848,3.0636 4.194803,-4.25605 c 2.307142,-2.34083 5.319804,-4.97665 6.694804,-5.85738 l 2.499995,-1.60133 -2.590837,-2.85258 c -4.705284,-5.18062 -7.087296,-10.223823 -7.617468,-16.127729 -1.05359,-11.732608 3.615033,-20.084402 14.117245,-25.254624 5.62464,-2.769003 7.33236,-3.156586 12.3108,-2.794053 5.68113,0.413704 6.85234,0.847018 16.68374,6.17253 4.83667,2.619946 4.9454,2.631651 7.98049,0.859065 2.09189,-1.221732 3.4297,-3.054115 4.17864,-5.723448 l 1.10163,-3.926378 1.79672,2.742139 c 2.76038,4.21288 1.58304,10.228693 -2.78501,14.230347 -2.62067,2.400857 -3.77874,4.56982 -4.7448,8.886634 -0.85931,3.839802 -2.0734,6.336285 -3.70601,7.620494 -2.36889,1.863366 -8.84942,3.671503 -9.78954,2.731388 -0.25913,-0.259128 0.42697,-2.450645 1.52467,-4.870038 2.56637,-5.656468 2.54,-8.236481 -0.13283,-12.99214 -5.21944,-9.286744 -19.94279,-7.05494 -24.43834,3.704429 -4.2069,10.068527 1.64682,25.366924 10.32958,26.995814 4.45953,0.83662 3.66327,2.65533 -1.61996,3.70014 -12.72057,2.51561 -20.454756,24.662336 -15.702604,44.964176 2.465884,10.53461 4.759474,14.24078 10.067504,16.26794 4.54457,1.73558 10.85386,1.54326 12.78691,-0.38979 0.92103,-0.92103 -7.77301,-13.14947 -9.34886,-13.14947 -0.42757,0 -2.23164,2.025 -4.00905,4.5 -3.49607,4.86818 -4.35441,5.34493 -5.28006,2.93272 -0.3616,-0.94231 0.79202,-3.39222 2.89301,-6.1438 1.92193,-2.51709 3.49443,-4.91581 3.49443,-5.33049 0,-0.41468 -2.50327,-3.95324 -5.56282,-7.86348 -4.550366,-5.81557 -5.505873,-7.69634 -5.24999,-10.33381 0.308364,-3.178416 0.40467,-3.100056 6.76856,5.50728 3.55066,4.80237 6.70968,8.73158 7.02004,8.73158 0.31036,0 3.65344,-4.12418 7.42906,-9.16485 6.4073,-8.554106 6.74308,-9.253806 5.03882,-10.499996 -1.00426,-0.73433 -3.2894,-1.33515 -5.0781,-1.33515 -4.21451,0 -6.35625,3.00502 -6.39488,8.972506 l -0.0293,4.52749 -2.97068,-3.26578 c -2.31452,-2.54443 -2.96986,-4.20103 -2.96695,-7.499996 0.007,-7.73444 3.2408,-10.9482 13.24626,-13.16346 1.90592,-0.42198 2.75,-1.23707 2.75,-2.65555 0,-2.3363 1.77204,-6.06308 3.3997,-7.1499 0.60517,-0.40407 3.0528,-0.74157 5.43919,-0.75 l 4.33888,-0.0153 -2.5889,3.07673 c -1.80709,2.1476 -2.56766,4.18599 -2.5186,6.75 0.0711,3.7161 1.72038,9.16741 1.85942,6.14589 0.0387,-0.84006 1.99173,-3.71095 4.34016,-6.37976 3.48016,-3.95493 4.48084,-4.59719 5.41056,-3.47262 0.89359,1.08088 0.23944,2.61271 -3.01987,7.07161 -2.44938,3.35086 -4.72046,5.50545 -5.5219,5.23866 -0.97644,-0.32506 -1.14064,0.0448 -0.58073,1.30815 3.24997,7.333136 6.40276,18.543266 6.42077,22.829836 0.047,11.17389 -6.08882,21.83453 -15.35049,26.67078 -6.308,3.29391 -17.55283,3.10707 -23.80387,-0.39552 -2.571603,-1.44092 -4.47046,-2.08515 -4.219674,-1.43161 0.250787,0.65354 -5.214629,8.55619 -12.145367,17.56145 -6.930738,9.00527 -13.730764,18.60201 -15.111167,21.32611 -4.313536,8.51235 -6.107355,9.70029 -14.647685,9.70029 -5.885038,0 -7.726994,-0.37186 -9.042551,-1.82553 z m 6.342109,-6.67447 c 0,-5.44444 -0.0303,-5.5 -3,-5.5 -2.868217,0 -3,0.18889 -3,4.3 0,4.60673 1.312202,6.7 4.2,6.7 1.515152,0 1.8,-0.87037 1.8,-5.5 z m 11.478088,1.8931 c 1.820027,-2.77771 1.367815,-3.76168 -2.228088,-4.84809 -1.912183,-0.57772 -2.25,-0.30659 -2.25,1.80581 0,3.00769 0.931428,5.64918 1.991979,5.64918 0.427901,0 1.54665,-1.17311 2.486109,-2.6069 z m 63.661507,-53.97578 c 2.50753,-5.66868 3.49358,-17.44024 1.93995,-23.15939 l -1.15237,-4.24206 -6.46359,8.56992 c -3.55497,4.71345 -6.46359,8.99899 -6.46359,9.52341 0,0.88073 9.11718,13.75727 9.80623,13.84972 0.16843,0.0226 1.21844,-2.02113 2.33337,-4.5416 z m 32.14502,58.33268 c -1.1352,-1.2375 -3.21377,-4.5 -4.61904,-7.25 -1.40527,-2.75 -7.96634,-11.975 -14.58017,-20.5 -6.61382,-8.525 -12.03869,-16.0625 -12.05527,-16.75 -0.0828,-3.43414 3.43174,0.0647 13.32453,13.26478 11.68968,15.59775 15.96125,19.96797 18.53535,18.96346 4.9504,-1.93183 13.58398,-3.53304 16.08635,-2.98343 4.42108,0.97103 5.3184,2.70566 4.51376,8.72562 -1.04306,7.80376 -2.31799,8.77957 -11.4708,8.77957 -6.67658,0 -7.9382,-0.2916 -9.73471,-2.25 z m 17.74011,-2.79621 c 0.6023,-1.12541 0.95563,-3.48791 0.78518,-5.25 -0.25717,-2.65858 -0.77789,-3.25764 -3.05991,-3.52021 -2.70854,-0.31165 -2.75,-0.2325 -2.75,5.25 0,4.86653 0.24705,5.56642 1.96482,5.56642 1.08065,0 2.45761,-0.92079 3.05991,-2.04621 z m -13.01108,-0.70379 c 0.008,-0.9625 0.2984,-2.81373 0.64641,-4.11385 0.56803,-2.12206 0.38763,-2.28957 -1.76365,-1.63761 -3.80785,1.154 -4.33341,2.18556 -2.52201,4.95011 1.93509,2.95332 3.61957,3.32424 3.63925,0.80135 z m -3.51365,-38.64882 c -9.20827,-2.9122 -13.09655,-6.21088 -16.63628,-14.11364 -1.84314,-4.11496 -2.22709,-6.73706 -2.19461,-14.98754 0.0827,-20.997306 7.60784,-37.582916 19.71019,-43.441566 8.12154,-3.93157 19.07834,-1.99341 22.39336,3.96118 0.95004,1.7065 2.57138,4.52905 3.60299,6.27234 l 1.87565,3.16962 2.74526,-3.28838 c 2.26085,-2.70814 2.85626,-2.99911 3.37435,-1.649 1.9839,5.16996 -0.41293,13.20143 -4.22084,14.14347 -1.45754,0.36058 -3.23989,1.48544 -3.96077,2.49968 -1.58802,2.234246 -6.39944,4.832656 -8.94851,4.832656 -1.02219,0 -2.66801,-0.59191 -3.65738,-1.31535 -1.68598,-1.23282 -1.59631,-1.517896 1.4291,-4.543316 3.03256,-3.03256 3.19974,-3.56834 2.76168,-8.85077 -0.54346,-6.55335 -2.9909,-9.29056 -8.30705,-9.29056 -4.6471,0 -9.54029,5.93891 -12.60899,15.30365 -1.98756,6.065416 -2.35815,9.239336 -2.35815,20.196346 0,11.85796 0.20886,13.36451 2.37753,17.14927 3.60526,6.29191 9.29724,8.5743 13.37802,5.36435 4.25833,-3.3496 6.86141,-9.88114 6.1133,-15.33921 -0.41323,-3.01484 -0.26645,-4.67441 0.41344,-4.67441 2.73847,0 4.56582,1.6463 6.2887,5.66562 1.03188,2.40727 2.67554,4.62477 3.65258,4.92777 3.67983,1.1412 4.75167,2.18642 5.37688,5.24339 l 0.64341,3.1459 -3.94583,-0.63097 c -3.69037,-0.59011 -4.24855,-0.33357 -8.62192,3.96256 -4.85283,4.76711 -10.45844,7.7342 -14.39399,7.61883 -1.25517,-0.0368 -4.08212,-0.63616 -6.28212,-1.33192 z M 44.749353,144.25455 c -9.809169,-4.27126 -14.852569,-19.91388 -13.33584,-41.36248 0.533073,-7.538356 1.239984,-10.439946 3.820559,-15.681836 5.351626,-10.8707 14.214026,-16.81 25.083241,-16.81 5.459221,0 8.77235,2.51256 11.675775,8.85447 3.499036,7.6429 4.03998,14.99394 1.410543,19.16826 -1.752372,2.781946 -2.622055,3.249996 -6.038845,3.249996 -3.167395,0 -4.334117,-0.52268 -5.650156,-2.531206 -0.912182,-1.39216 -1.485055,-2.65105 -1.273053,-2.79752 0.212002,-0.14647 1.610544,-0.79212 3.10787,-1.43478 4.784493,-2.05353 4.929974,-9.17501 0.282375,-13.82261 -5.570924,-5.57093 -12.75857,-0.71704 -16.486218,11.13329 -2.768778,8.802046 -3.747367,24.672396 -2.029804,32.918496 2.93745,14.10284 15.084326,17.15203 21.128795,5.30389 2.033534,-3.98605 2.091936,-6.38546 0.304729,-12.51956 -1.009255,-3.46399 3.9064,-3.11656 6.281026,0.44393 0.988177,1.48166 3.767461,4.67993 6.176187,7.10726 2.546043,2.56571 4.699844,5.83369 5.144689,7.80607 0.870654,3.86037 0.09586,4.28787 -2.524191,1.39274 -3.007974,-3.32377 -5.956007,-2.50396 -10.538542,2.93066 -2.389835,2.8342 -5.825252,5.59792 -8.079762,6.5 -4.758439,1.90395 -14.255146,1.9816 -18.459378,0.15093 z M 67.150891,65.474524 C 60.879717,57.608668 54.532128,49.559762 53.045138,47.588069 l -2.703619,-3.584896 2.52227,-1.349878 c 2.139789,-1.14518 2.736401,-1.132306 3.934358,0.0849 4.334618,4.404256 25.525515,33.669419 25.287946,34.923289 -0.789629,4.16763 -3.956515,1.58349 -14.935202,-12.18695 z m 75.563369,12.76516 c -0.64607,-1.68363 0.59971,-3.54752 14.94539,-22.360657 5.95795,-7.813334 11.41535,-14.206062 12.12756,-14.206062 0.71221,0 1.87075,0.693815 2.57452,1.541812 1.5123,1.82221 1.73569,1.487094 -14.80389,22.208187 -10.87597,13.62562 -13.62299,15.99754 -14.84358,12.81672 z"
       id="path159" />
  </g>
</svg>
