<?xml version="1.0" encoding="UTF-8" standalone="no"?>
<!-- Created with Inkscape (http://www.inkscape.org/) -->

<svg
   width="210mm"
   height="297mm"
   viewBox="0 0 210 297"
   version="1.1"
   id="svg5"
   inkscape:version="1.1.1 (3bf5ae0d25, 2021-09-20)"
   sodipodi:docname="wine.svg"
   xmlns:inkscape="http://www.inkscape.org/namespaces/inkscape"
   xmlns:sodipodi="http://sodipodi.sourceforge.net/DTD/sodipodi-0.dtd"
   xmlns="http://www.w3.org/2000/svg"
   xmlns:svg="http://www.w3.org/2000/svg">
  <sodipodi:namedview
     id="namedview7"
     pagecolor="#ffffff"
     bordercolor="#666666"
     borderopacity="1.0"
     inkscape:pageshadow="2"
     inkscape:pageopacity="0.0"
     inkscape:pagecheckerboard="0"
     inkscape:document-units="mm"
     showgrid="false"
     inkscape:zoom="0.38781049"
     inkscape:cx="306.85091"
     inkscape:cy="809.67382"
     inkscape:window-width="1500"
     inkscape:window-height="938"
     inkscape:window-x="-6"
     inkscape:window-y="-6"
     inkscape:window-maximized="1"
     inkscape:current-layer="layer1" />
  <defs
     id="defs2">
    <inkscape:path-effect
       effect="bspline"
       id="path-effect1582"
       is_visible="true"
       lpeversion="1"
       weight="33.333333"
       steps="2"
       helper_size="0"
       apply_no_weight="true"
       apply_with_weight="true"
       only_selected="false" />
    <inkscape:path-effect
       effect="bspline"
       id="path-effect1578"
       is_visible="true"
       lpeversion="1"
       weight="33.333333"
       steps="2"
       helper_size="0"
       apply_no_weight="true"
       apply_with_weight="true"
       only_selected="false" />
    <inkscape:path-effect
       effect="bspline"
       id="path-effect1024"
       is_visible="true"
       lpeversion="1"
       weight="33.333333"
       steps="2"
       helper_size="0"
       apply_no_weight="true"
       apply_with_weight="true"
       only_selected="false" />
    <inkscape:path-effect
       effect="bspline"
       id="path-effect859"
       is_visible="true"
       lpeversion="1"
       weight="33.333333"
       steps="2"
       helper_size="0"
       apply_no_weight="true"
       apply_with_weight="true"
       only_selected="false" />
  </defs>
  <g
     inkscape:label="Layer 1"
     inkscape:groupmode="layer"
     id="layer1">
    <path
       id="path1576"
       style="fill:#ffffff;fill-opacity:0;stroke:#ffffff;stroke-width:2.73214;stroke-linecap:butt;stroke-linejoin:miter;stroke-miterlimit:4;stroke-dasharray:none;stroke-opacity:1"
       inkscape:path-effect="#path-effect1578"
       inkscape:original-d="m 47.657211,20.276873 c 19.348233,4.804696 38.695896,9.608815 58.042989,14.412386 18.77791,-4.98765 37.55451,-9.975667 56.3309,-14.964352 m 0,3e-6 c 6.02251,19.274451 12.04558,38.548303 18.06924,57.821593 -6.32493,21.081772 -12.64903,42.162137 -18.97268,63.242347 -10.84236,6.92727 -22.28599,13.85367 -33.42812,20.77961 -4.21679,0.60291 -8.43287,0.60289 -12.64846,0.90348 -2.2922,12.64937 -4.58479,25.29729 -6.87812,37.94542 1.99216,19.27475 3.98363,38.54784 5.97464,57.82156 0.50181,4.36561 1.00309,8.73113 1.50389,13.09682 10.49317,2.21227 20.98391,4.42358 31.47304,6.63407 11.89447,2.45792 23.78869,4.91535 35.68619,7.37297 -6.25243,0.52165 -12.50218,1.04246 -18.75479,1.56289 -15.13083,-0.52043 -30.26084,-1.04138 -45.391,-1.56289 M 47.657211,20.276873 c -6.022507,19.274444 -12.045587,38.548296 -18.069239,57.821584 6.324927,21.081771 12.649039,42.162143 18.9727,63.242363 10.842337,6.92724 22.285972,13.85366 33.428101,20.77961 4.216815,0.6029 8.432883,0.60288 12.648466,0.90345 1.5987,12.82297 3.19671,25.64459 4.79425,38.4664 -1.29638,19.10116 -2.59326,38.20059 -3.89078,57.3006 -1.36902,4.71358 -2.738536,9.42629 -4.108706,14.13873 -11.358952,1.95148 -22.717799,3.90229 -34.077876,5.85266 -10.158472,2.37145 -20.316918,4.74216 -30.476541,7.11246 6.946933,5.7e-4 13.892873,5.7e-4 20.83866,0 23.650608,-0.18335 47.299703,-0.3674 70.948684,-0.55195"
       d="m 47.657211,20.276873 c 19.348333,4.804295 38.695993,9.608423 57.758359,9.516244 19.06236,-0.09218 37.83896,-5.080198 56.61553,-10.06821 m 0,3e-6 c 6.0232,19.274237 12.04627,38.548087 11.89548,58.725782 -0.1508,20.177695 -6.4749,41.258058 -15.10011,55.194148 -8.62521,13.93609 -19.98491,20.99751 -27.67503,24.61193 -7.69013,3.61443 -11.88481,3.91405 -15.13901,10.38924 -3.2542,6.47518 -5.5468,19.1231 -5.69731,35.08463 -0.15052,15.96152 1.84095,35.23461 3.08737,47.05428 1.24641,11.81967 1.7477,16.18519 7.24498,19.47392 5.49728,3.28873 15.98802,5.50003 27.17982,7.83424 11.1918,2.33421 23.08602,4.79163 25.90849,6.28118 2.82246,1.48956 -3.42729,2.01037 -14.11898,2.0104 -10.69168,3e-5 -25.82169,-0.52092 -40.95187,-1.04188 M 47.657211,20.276873 c -6.023195,19.274229 -12.046272,38.548082 -11.895475,58.725773 0.150797,20.177692 6.474906,41.258064 15.100105,55.194154 8.625199,13.93608 19.984907,20.99751 27.675047,24.61194 7.690141,3.61442 11.884806,3.91403 14.791676,10.4761 2.90687,6.56207 4.50489,19.38369 4.655413,35.34513 0.150523,15.96143 -1.146351,35.06086 -2.479662,46.96757 -1.333311,11.90672 -2.702822,16.61943 -9.067098,19.95117 -6.364275,3.33175 -17.723122,5.28256 -28.482421,7.44344 -10.7593,2.16089 -20.917742,4.53162 -22.52401,5.7171 -1.606267,1.18548 5.339673,1.18548 20.637868,1.09348 15.298195,-0.092 38.947291,-0.27597 62.596276,-0.45995" />
    <path
       style="fill:#000000;fill-opacity:1;stroke:#000000;stroke-width:0.571444px;stroke-linecap:butt;stroke-linejoin:miter;stroke-opacity:1"
       d="m 45.007668,101.37336 c 0.434274,5.03631 2.691791,13.1981 5.123101,19.44973 2.43131,6.25164 5.03604,10.59286 8.769795,15.10794 3.733754,4.51508 8.595911,9.20359 13.632075,12.93716 5.036163,3.73357 10.245712,6.51199 15.715847,8.33525 5.470135,1.82325 11.200641,2.69151 16.931274,2.43092 5.73063,-0.26058 11.46103,-1.64977 17.10485,-3.82051 5.64382,-2.17074 11.09013,-5.06409 16.58043,-9.58033 5.4903,-4.51624 10.5962,-10.30295 14.76398,-17.16235 4.16777,-6.8594 7.29351,-14.67376 9.11693,-21.27256 1.82341,-6.5988 2.34437,-11.982022 -0.69459,-12.329626 -3.03895,-0.347603 -9.63759,4.340909 -15.80223,4.167558 -6.16465,-0.17335 -11.89517,-5.209265 -17.36568,-4.862148 -5.47051,0.347117 -10.68008,6.077646 -17.53921,6.425086 -6.85913,0.34743 -15.367912,-4.688382 -22.835345,-6.685697 -7.467432,-1.997314 -13.892554,-0.9554 -18.668298,0.954837 -4.775744,1.910238 -7.901481,4.68868 -11.374377,4.341649 -3.472897,-0.34703 -7.293174,-3.820014 -9.898391,-4.6017 -2.605217,-0.781687 -3.994435,1.128486 -3.560161,6.164791 z"
       id="path1580"
       inkscape:path-effect="#path-effect1582"
       inkscape:original-d="m 43.184227,98.247159 c 2.258095,8.162401 4.515614,16.324191 6.772564,24.485421 2.605454,4.34205 5.210187,8.68327 7.814495,13.02417 4.86302,4.68937 9.725179,9.37788 14.587063,14.06611 5.210343,2.77911 10.419897,5.55752 15.629,8.33545 5.731202,0.86884 11.46171,1.73709 17.191881,2.60484 5.73132,-1.3887 11.46172,-2.77791 17.1919,-4.16773 5.55766,-2.95164 11.00397,-5.84498 16.67093,-8.85642 5.31388,-6.02119 10.4198,-11.80789 15.62899,-17.71289 3.12644,-7.81406 6.25218,-15.62842 9.3774,-23.4435 0.52155,-5.38274 1.04249,-10.765962 1.56289,-16.149953 -6.59848,4.689362 -13.19711,9.377885 -19.79672,14.066113 -5.73017,-5.035543 -11.46069,-10.07146 -17.19189,-15.10803 -5.2092,5.731306 -10.41876,11.46184 -15.62899,17.1919 -8.50873,-5.03556 -17.017511,-10.071375 -25.527365,-15.108051 -6.424807,1.042529 -12.84993,2.084434 -19.275761,3.125806 -3.125227,2.779063 -6.250964,5.557505 -9.377391,8.335485 -3.819925,-3.472614 -7.640198,-6.945601 -11.461266,-10.419347 -1.388703,1.910816 -2.777913,3.820994 -4.16773,5.730626 z"
       sodipodi:nodetypes="ccccccccccccccccccc" />
    <path
       style="fill:#ffffff;fill-opacity:1;stroke:#ffffff;stroke-width:2.4908;stroke-opacity:1"
       d="m 144.5122,284.46823 c -7.30655,-0.19209 -32.97717,-0.40638 -57.045815,-0.4762 -24.068656,-0.0698 -43.057888,-0.30776 -42.198293,-0.52875 0.859597,-0.22101 7.423773,-1.61627 14.587062,-3.1006 25.282829,-5.23898 30.407716,-7.27879 33.70258,-13.41429 2.346585,-4.36966 3.307315,-10.27811 4.813625,-29.60316 2.557681,-32.81375 1.08763,-58.64122 -3.94968,-69.39243 -1.963049,-4.18978 -3.885085,-5.7085 -11.374326,-8.9876 C 62.5385,149.98555 51.003565,136.68307 43.223875,113.03946 36.295791,91.983975 35.686379,73.218051 41.153227,49.276317 c 1.417149,-6.20632 6.843166,-25.244178 7.495922,-26.300351 0.307889,-0.498174 2.438601,-0.158718 9.189696,1.464054 19.441446,4.673174 29.969614,6.294676 43.433145,6.689391 15.32283,0.449219 28.10222,-1.316718 49.91121,-6.897054 4.95843,-1.268728 9.20514,-2.306781 9.43713,-2.306781 1.03807,0 8.5372,27.953244 10.28665,38.343832 1.33321,7.918396 1.3298,27.43794 -0.006,34.59148 -4.14058,22.173372 -11.8246,38.638552 -23.31722,49.963762 -4.08685,4.02733 -10.94633,8.91117 -15.6188,11.12033 -1.55169,0.73365 -5.04838,2.3711 -7.77043,3.63877 -5.64127,2.6272 -8.20219,5.04056 -10.24115,9.65102 -4.10186,9.27499 -6.03239,28.35433 -4.91497,48.57421 0.69266,12.53367 2.92302,36.46028 3.94375,42.30711 1.8799,10.76838 5.86201,13.304 28.74015,18.30051 4.54303,0.99218 12.30594,2.68517 17.25092,3.76218 4.94497,1.07702 8.93036,2.00596 8.85643,2.06428 -0.51509,0.40635 -12.15124,0.51872 -23.31743,0.22517 z M 112.75546,159.19557 c 23.02443,-4.84333 40.65803,-21.61393 48.96333,-46.56707 3.57255,-10.73365 3.95396,-16.126627 1.22835,-17.368499 -1.1089,-0.505236 -2.29558,-0.257553 -7.87645,1.643912 -8.03824,2.738745 -9.54254,2.70098 -17.5633,-0.440802 -7.57691,-2.967924 -9.41236,-2.867787 -17.077,0.931658 -8.6399,4.282881 -10.98449,4.225851 -23.576181,-0.573502 -13.788936,-5.255679 -20.911384,-5.214909 -31.643651,0.181173 -5.329791,2.679765 -6.742797,2.638661 -12.725414,-0.37026 -5.183828,-2.607162 -6.635852,-2.682664 -7.507379,-0.390388 -2.175,5.720688 3.485173,25.524178 10.168689,35.577628 2.970228,4.46786 10.006086,11.99798 14.701413,15.73416 7.184222,5.71665 15.665756,9.91566 23.357256,11.56358 4.830456,1.03495 14.812837,1.07499 19.550337,0.0784 z"
       id="path5486" />
  </g>
</svg>
